<mxfile host="app.diagrams.net" agent="Mozilla/5.0 (Windows NT 10.0; Win64; x64) AppleWebKit/537.36 (KHTML, like Gecko) Chrome/139.0.0.0 Safari/537.36" version="28.2.1">
  <diagram name="Página-1" id="bwVmWs_cJ7G_lVIT2NMw">
    <mxGraphModel dx="1042" dy="546" grid="1" gridSize="10" guides="1" tooltips="1" connect="1" arrows="1" fold="1" page="1" pageScale="1" pageWidth="827" pageHeight="1169" math="0" shadow="0">
      <root>
        <mxCell id="0" />
        <mxCell id="1" parent="0" />
        <mxCell id="j4nJ_EBiF03cllVOoTe8-14" value="" style="rounded=0;whiteSpace=wrap;html=1;" vertex="1" parent="1">
          <mxGeometry x="50" y="50" width="650" height="400" as="geometry" />
        </mxCell>
        <mxCell id="j4nJ_EBiF03cllVOoTe8-10" style="edgeStyle=orthogonalEdgeStyle;rounded=0;orthogonalLoop=1;jettySize=auto;html=1;" edge="1" parent="1" source="j4nJ_EBiF03cllVOoTe8-1" target="j4nJ_EBiF03cllVOoTe8-3">
          <mxGeometry relative="1" as="geometry" />
        </mxCell>
        <mxCell id="j4nJ_EBiF03cllVOoTe8-11" style="edgeStyle=orthogonalEdgeStyle;rounded=0;orthogonalLoop=1;jettySize=auto;html=1;" edge="1" parent="1" source="j4nJ_EBiF03cllVOoTe8-1" target="j4nJ_EBiF03cllVOoTe8-2">
          <mxGeometry relative="1" as="geometry" />
        </mxCell>
        <mxCell id="j4nJ_EBiF03cllVOoTe8-1" value="EC2&lt;div&gt;Cadastro, autenticação..&lt;/div&gt;" style="outlineConnect=0;dashed=0;verticalLabelPosition=bottom;verticalAlign=top;align=center;html=1;shape=mxgraph.aws3.ec2;fillColor=#F58534;gradientColor=none;" vertex="1" parent="1">
          <mxGeometry x="271.75" y="73.5" width="76.5" height="93" as="geometry" />
        </mxCell>
        <mxCell id="j4nJ_EBiF03cllVOoTe8-12" style="edgeStyle=orthogonalEdgeStyle;rounded=0;orthogonalLoop=1;jettySize=auto;html=1;" edge="1" parent="1" source="j4nJ_EBiF03cllVOoTe8-2" target="j4nJ_EBiF03cllVOoTe8-8">
          <mxGeometry relative="1" as="geometry" />
        </mxCell>
        <mxCell id="j4nJ_EBiF03cllVOoTe8-2" value="" style="outlineConnect=0;dashed=0;verticalLabelPosition=bottom;verticalAlign=top;align=center;html=1;shape=mxgraph.aws3.s3;fillColor=#E05243;gradientColor=none;" vertex="1" parent="1">
          <mxGeometry x="271.75" y="270" width="76.5" height="93" as="geometry" />
        </mxCell>
        <mxCell id="j4nJ_EBiF03cllVOoTe8-3" value="EBS&lt;div&gt;Disco/Armazenamento de Log&lt;/div&gt;" style="outlineConnect=0;dashed=0;verticalLabelPosition=bottom;verticalAlign=top;align=center;html=1;shape=mxgraph.aws3.volume;fillColor=#E05243;gradientColor=none;" vertex="1" parent="1">
          <mxGeometry x="520" y="82.5" width="52.5" height="75" as="geometry" />
        </mxCell>
        <mxCell id="j4nJ_EBiF03cllVOoTe8-9" style="edgeStyle=orthogonalEdgeStyle;rounded=0;orthogonalLoop=1;jettySize=auto;html=1;" edge="1" parent="1" source="j4nJ_EBiF03cllVOoTe8-5" target="j4nJ_EBiF03cllVOoTe8-1">
          <mxGeometry relative="1" as="geometry" />
        </mxCell>
        <mxCell id="j4nJ_EBiF03cllVOoTe8-5" value="Users" style="sketch=0;outlineConnect=0;fontColor=#232F3E;gradientColor=none;strokeColor=#232F3E;fillColor=#ffffff;dashed=0;verticalLabelPosition=bottom;verticalAlign=top;align=center;html=1;fontSize=12;fontStyle=0;aspect=fixed;shape=mxgraph.aws4.resourceIcon;resIcon=mxgraph.aws4.users;" vertex="1" parent="1">
          <mxGeometry x="60" y="90" width="60" height="60" as="geometry" />
        </mxCell>
        <mxCell id="j4nJ_EBiF03cllVOoTe8-7" value="S3&lt;div&gt;Repositorio&lt;/div&gt;" style="text;html=1;align=center;verticalAlign=middle;resizable=0;points=[];autosize=1;strokeColor=none;fillColor=none;" vertex="1" parent="1">
          <mxGeometry x="268.25" y="363" width="80" height="40" as="geometry" />
        </mxCell>
        <mxCell id="j4nJ_EBiF03cllVOoTe8-8" value="Lambida&lt;div&gt;Executa comandos e rotinas&lt;/div&gt;" style="outlineConnect=0;dashed=0;verticalLabelPosition=bottom;verticalAlign=top;align=center;html=1;shape=mxgraph.aws3.lambda;fillColor=#F58534;gradientColor=none;" vertex="1" parent="1">
          <mxGeometry x="490" y="270" width="76.5" height="93" as="geometry" />
        </mxCell>
      </root>
    </mxGraphModel>
  </diagram>
</mxfile>
